# xmcd
#
# Track frame offsets: 
#        183
#        11940
#        22528
#        33150
#        43388
#        56025
#        68888
#        79530
#        90395
#        101693
#        113788
#        123725
#        148373
#        159403
#        170190
#
# Disc length: 2411 seconds
#
# Revision: 3
# Processed by: cddbd v1.4PL0 Copyright (c) Steve Scherf et al.
# Submitted via: ExactAudioCopy v0.90b4
#
DISCID=cb09690f
DTITLE=Arthur "Big Boy" Crudup - Mean Ol' Frisco
DYEAR=1900
DGENRE=Blues
TTITLE0=Mean Ol' Frisco
TTITLE1=I'm In The Mood
TTITLE2=That's All Right
TTITLE3=Standin' At My Window
TTITLE4=Angel Child (Take 1)
TTITLE5=Katie Mae
TTITLE6=Look At Yonder Wall
TTITLE7=Dig Myself A Hole
TTITLE8=If I Get Lucky
TTITLE9=Death Valley
TTITLE10=I Love Her Just The Same
TTITLE11=Angel Child (Take 2)
TTITLE12=Rock Me Mama
TTITLE13=Ethel Mae
TTITLE14=My Mama Don't Allow Me
EXTD=
EXTT0=
EXTT1=
EXTT2=
EXTT3=
EXTT4=
EXTT5=
EXTT6=
EXTT7=
EXTT8=
EXTT9=
EXTT10=
EXTT11=
EXTT12=
EXTT13=
EXTT14=
PLAYORDER=
